<svg width="48" height="48" viewBox="0 0 48 48" fill="none" xmlns="http://www.w3.org/2000/svg">
<path d="M28.3117 23.6446C28.0709 23.6446 27.8473 23.5784 27.6487 23.4719V23.4748C27.6487 23.8536 27.5014 24.2094 27.2343 24.4758C26.9671 24.743 26.6116 24.8903 26.2332 24.8903C25.9889 24.8903 25.7625 24.8224 25.5617 24.7131C25.5415 25.0597 25.4029 25.3836 25.1558 25.631C24.8886 25.8982 24.5331 26.0454 24.1545 26.0454C23.4022 26.0454 22.7913 25.4541 22.7473 24.7129C22.5145 24.8387 22.2513 24.9046 21.9799 24.8872C21.2398 24.8387 20.6603 24.1993 20.6603 23.4312V17.0645L19.9353 18.3205C19.6592 18.8009 19.1423 19.0991 18.5858 19.0991C18.3147 19.0991 18.0468 19.028 17.8095 18.892C17.5141 18.7208 17.3028 18.4458 17.2149 18.1169C17.1265 17.7878 17.1722 17.4436 17.3431 17.1486C17.3433 17.1486 19.715 13.0414 19.8597 12.7891C19.8769 12.7512 19.9259 12.6411 19.9676 12.5474C20.0075 12.4578 20.0416 12.366 20.0744 12.2736C20.7896 10.2543 22.5607 8.99998 24.6966 8.99998C27.4703 8.99998 29.7268 11.4469 29.7268 14.4546L29.727 22.2289C29.727 22.6073 29.58 22.9628 29.3131 23.2302C29.0459 23.4974 28.6904 23.6447 28.3116 23.6447L28.3117 23.6446ZM24.6966 9.75212C22.8613 9.75212 21.3984 10.7888 20.7833 12.5251C20.744 12.6354 20.703 12.7457 20.6552 12.8531C20.5164 13.1643 20.5164 13.1643 20.4773 13.2091L20.4721 13.2046C20.2784 13.57 19.7031 14.5663 17.9943 17.525C17.9241 17.6463 17.9055 17.7872 17.9413 17.922C17.9776 18.0567 18.0645 18.1703 18.1849 18.2398C18.5586 18.4544 19.0703 18.3159 19.2833 17.9448L20.7108 15.4734C20.7961 15.3261 20.9685 15.2538 21.1339 15.2986C21.2983 15.3426 21.4126 15.4918 21.4126 15.6619V23.4314C21.4126 23.798 21.6892 24.1144 22.0292 24.1368C22.2252 24.1471 22.408 24.0814 22.5454 23.9443C22.6702 23.8194 22.739 23.6531 22.739 23.4752V18.3938C22.739 18.186 22.9075 18.0176 23.1153 18.0176C23.3231 18.0176 23.4915 18.1858 23.4915 18.3938L23.4913 24.6302C23.4913 24.9958 23.7889 25.2934 24.1545 25.2934C24.3321 25.2934 24.499 25.2246 24.6241 25.0997C24.7489 24.9746 24.8177 24.8078 24.8177 24.6302V18.3938C24.8177 18.186 24.9859 18.0176 25.194 18.0176C25.4018 18.0176 25.5702 18.1858 25.5702 18.3938L25.57 23.4168V23.4752C25.57 23.8406 25.8675 24.1381 26.2334 24.1381C26.4108 24.1381 26.5772 24.0691 26.703 23.9438C26.8278 23.8191 26.8966 23.6528 26.8966 23.4749V18.3936C26.8966 18.1858 27.0649 18.0173 27.2729 18.0173C27.4807 18.0173 27.6491 18.1855 27.6491 18.3936L27.6487 22.2291C27.6487 22.595 27.9462 22.8925 28.3116 22.8925C28.4895 22.8925 28.6558 22.8235 28.7807 22.6989C28.906 22.5736 28.9746 22.4067 28.9746 22.2291L28.9748 14.4548C28.9748 11.862 27.0557 9.7522 24.6966 9.7522L24.6966 9.75212Z" fill="#103E13"/>
<path d="M13.5287 29.0481L18.9885 25.7728C19.6467 25.3774 20.4937 25.5454 20.9159 26.1554C21.07 26.3776 21.1486 26.6365 21.1609 26.9001C21.3645 26.7939 21.5859 26.7362 21.8114 26.7362C21.9268 26.7362 22.0427 26.7505 22.1572 26.779C22.5241 26.8707 22.8332 27.0999 23.0276 27.4241C23.2222 27.7487 23.2789 28.1292 23.1873 28.4956C23.1027 28.8346 22.8966 29.12 22.6098 29.3157C22.8103 29.434 22.9833 29.5954 23.1062 29.8008C23.3008 30.1255 23.3576 30.5058 23.2662 30.8726C23.1746 31.239 22.9453 31.548 22.6207 31.7429L22.6188 31.7441C22.8158 31.8621 22.9856 32.0219 23.1072 32.2242C23.302 32.5489 23.3588 32.9294 23.2672 33.2962C23.1753 33.6628 22.946 33.9719 22.6219 34.1665L15.9555 38.1658C14.7113 38.9119 13.2729 39.1695 11.906 38.8903C10.5268 38.6085 9.3846 37.8157 8.6901 36.658C7.59101 34.8262 7.75573 32.662 9.11912 31.0102C9.18156 30.9348 9.24305 30.858 9.29889 30.7784C9.35802 30.6943 9.42705 30.5953 9.45061 30.5614C9.59173 30.3093 11.8945 26.1604 11.8943 26.1609C12.1268 25.7413 12.5626 25.5038 13.0122 25.504C13.2218 25.504 13.4346 25.5556 13.6308 25.6645C13.8679 25.7969 14.0669 25.9898 14.2062 26.2223C14.4924 26.6994 14.5026 27.2965 14.233 27.7796L13.5287 29.0481ZM13.5615 26.6091C13.4884 26.4873 13.3881 26.3903 13.2653 26.3215C13.0116 26.1811 12.6921 26.2725 12.5524 26.5253C10.9047 29.4938 10.343 30.5054 10.1262 30.8654L10.1312 30.8666C10.113 30.9269 10.113 30.9269 9.91466 31.2104C9.84727 31.3062 9.774 31.3984 9.69932 31.4891C8.52695 32.9095 8.39083 34.697 9.33485 36.271C9.9196 37.2459 10.886 37.9143 12.0562 38.1532C13.2392 38.3937 14.4859 38.1699 15.5681 37.5206L22.2351 33.5211C22.3873 33.43 22.4947 33.2851 22.5376 33.1133C22.5805 32.9418 22.5538 32.7635 22.4624 32.6113C22.2744 32.2979 21.8661 32.195 21.5528 32.3837L18.2639 34.3568C18.0858 34.4638 17.8544 34.4063 17.7477 34.228C17.6407 34.0498 17.6984 33.8187 17.8765 33.7118L21.1657 31.7386L22.2339 31.0978C22.3861 31.0064 22.4938 30.8615 22.5367 30.6902C22.5795 30.5185 22.5529 30.3399 22.4615 30.1879C22.2733 29.8743 21.865 29.7723 21.5519 29.9603L17.1945 32.5743C17.0159 32.6815 16.7852 32.6235 16.6783 32.4454C16.5713 32.2673 16.6293 32.0362 16.8072 31.9292L22.155 28.7211C22.3072 28.6297 22.4146 28.485 22.4575 28.3133C22.5004 28.1418 22.4738 27.9634 22.3826 27.8112C22.2914 27.6593 22.1465 27.5518 21.9748 27.509C21.8021 27.4661 21.6244 27.4927 21.4727 27.5837L20.4827 28.1776C20.4825 28.1776 20.4825 28.1778 20.4823 28.1778H20.482L16.1249 30.7918C15.9463 30.8992 15.7154 30.8413 15.6087 30.6629C15.5017 30.4848 15.5597 30.2537 15.7376 30.1467L20.0949 27.5328C20.2471 27.4414 20.3548 27.2965 20.3977 27.1252C20.4448 26.9372 20.409 26.7449 20.2973 26.5838C20.1037 26.3037 19.6895 26.2292 19.3754 26.4179L12.7132 30.4146C12.5674 30.5018 12.3806 30.4806 12.2583 30.3626C12.1358 30.2443 12.1082 30.0584 12.1907 29.9097L13.576 27.4138C13.715 27.1643 13.7096 26.8561 13.5614 26.6092L13.5615 26.6091Z" fill="#103E13"/>
<path d="M39.6174 36.6577C38.923 37.8157 37.7811 38.6083 36.4017 38.8901C35.0345 39.1688 33.5967 38.9117 32.3522 38.1656L25.6852 34.1661C25.3608 33.9715 25.1313 33.6624 25.0395 33.2953C24.9483 32.9289 25.0053 32.5484 25.1997 32.2243C25.321 32.0216 25.4911 31.8619 25.6883 31.7439L25.6864 31.7427C25.362 31.5481 25.1325 31.239 25.0411 30.8724C24.9492 30.5058 25.0063 30.125 25.2009 29.8004C25.3262 29.5919 25.4979 29.4289 25.694 29.3132C25.4094 29.1174 25.2044 28.8331 25.1201 28.4957C25.0282 28.1288 25.0852 27.7483 25.2798 27.4242C25.4742 27.0997 25.7835 26.8705 26.1501 26.7789C26.2646 26.7501 26.3808 26.736 26.4957 26.736C26.7214 26.7362 26.9429 26.7935 27.1464 26.9C27.1589 26.6363 27.2374 26.3774 27.3915 26.1552C27.8139 25.5458 28.6602 25.3771 29.3194 25.7726L34.7789 29.0474L34.0752 27.7799C33.8052 27.296 33.8151 26.699 34.1013 26.2216C34.2408 25.9893 34.4401 25.7964 34.6783 25.6628C34.8741 25.5544 35.0861 25.5031 35.2953 25.5031C35.7446 25.5033 36.1809 25.7403 36.4132 26.1599C37.2227 27.6185 38.7503 30.3694 38.8578 30.5614C38.8806 30.5946 38.9496 30.6936 39.0088 30.7777C39.0651 30.8575 39.1259 30.9339 39.1888 31.0097C40.552 32.6622 40.7164 34.8262 39.6173 36.6578L39.6174 36.6577ZM38.6083 31.4892C38.5334 31.3985 38.4599 31.3059 38.393 31.2105C38.1894 30.9217 38.1843 30.9141 38.1689 30.8385C37.931 30.4448 37.3505 29.3997 35.7548 26.5249C35.6149 26.2726 35.2968 26.1805 35.0435 26.3204C34.9189 26.3901 34.8188 26.4874 34.7457 26.6093C34.5978 26.8559 34.5921 27.1641 34.7318 27.4143L36.1167 29.9095C36.1994 30.0584 36.1718 30.2441 36.0495 30.3623C35.9275 30.4808 35.7409 30.5016 35.5944 30.4144L28.9322 26.4177C28.6181 26.2295 28.2042 26.3032 28.01 26.5836C27.8984 26.7447 27.8628 26.937 27.9094 27.1247C27.9523 27.2963 28.06 27.4409 28.2124 27.5323C28.2129 27.5326 28.2131 27.533 28.2136 27.5333L32.5696 30.1465C32.7477 30.2535 32.8054 30.4844 32.6985 30.6627C32.5915 30.8406 32.3608 30.8988 32.1823 30.7916L26.8344 27.5835C26.6827 27.4925 26.5041 27.4657 26.3326 27.5088C26.1606 27.5517 26.016 27.6591 25.9248 27.8115C25.8334 27.9635 25.807 28.1418 25.8494 28.3133C25.8923 28.4849 25.9999 28.6297 26.1521 28.7212L27.1928 29.3453L31.4997 31.9293C31.6778 32.0363 31.7356 32.2672 31.6286 32.4455C31.5216 32.6234 31.291 32.6814 31.1124 32.5744L26.7555 29.9604C26.4422 29.7719 26.0341 29.8742 25.8456 30.188C25.7542 30.3402 25.7278 30.5186 25.7702 30.6901C25.8131 30.8616 25.9208 31.0062 26.0732 31.0979L27.1414 31.7387L30.4301 33.7119C30.6082 33.8188 30.6659 34.0497 30.559 34.2281C30.452 34.4059 30.2214 34.4644 30.0428 34.3569L26.7541 32.3838C26.6024 32.2928 26.4245 32.266 26.252 32.3091C26.0805 32.352 25.9354 32.4594 25.8442 32.6114C25.753 32.7636 25.7264 32.9421 25.7688 33.1134C25.8117 33.2849 25.9194 33.4296 26.0718 33.5212L32.7388 37.5207C33.8207 38.1698 35.0684 38.3945 36.2507 38.1533C37.4206 37.9144 38.3871 37.246 38.9718 36.2711C39.9168 34.6968 39.7808 32.9091 38.6087 31.4892L38.6083 31.4892Z" fill="#103E13"/>
</svg>
