<svg width="66" height="56" viewBox="0 0 66 56" fill="none" xmlns="http://www.w3.org/2000/svg">
<path d="M65.5 38C65.5 47.9411 57.4411 56 47.5 56L20.5 56C17.7386 56 15.5 53.7614 15.5 51L15.5 17C15.5 11.4772 19.9772 7 25.5 7L60.5 7C63.2614 7 65.5 9.23858 65.5 12L65.5 38Z" fill="#E8F5E9"/>
<path d="M27.4163 19.0109C27.1042 19.0109 26.8506 18.7577 26.8506 18.4453V17.4839C26.8506 17.1719 27.1038 16.9183 27.4163 16.9183C27.7283 16.9183 27.9819 17.1715 27.9819 17.4839V18.4453C27.9819 18.7577 27.7283 19.0109 27.4163 19.0109Z" fill="#103E13"/>
<path d="M25.0383 19.0109C24.7263 19.0109 24.4727 18.7577 24.4727 18.4453V17.4839C24.4727 17.1719 24.7259 16.9183 25.0383 16.9183C25.3504 16.9183 25.604 17.1715 25.604 17.4839V18.4453C25.6036 18.7577 25.3508 19.0109 25.0383 19.0109Z" fill="#103E13"/>
<path d="M22.6604 19.0109C22.3484 19.0109 22.0947 18.7577 22.0947 18.4453V17.4839C22.0947 17.1719 22.348 16.9183 22.6604 16.9183C22.9724 16.9183 23.2261 17.1715 23.2261 17.4839V18.4453C23.2261 18.7577 22.9728 19.0109 22.6604 19.0109Z" fill="#103E13"/>
<path d="M27.4163 22.9421C27.1042 22.9421 26.8506 22.6889 26.8506 22.3765V21.4155C26.8506 21.1035 27.1038 20.8499 27.4163 20.8499C27.7283 20.8499 27.9819 21.1031 27.9819 21.4155V22.3765C27.9819 22.6889 27.7283 22.9421 27.4163 22.9421Z" fill="#103E13"/>
<path d="M25.0383 22.9421C24.7263 22.9421 24.4727 22.6889 24.4727 22.3765V21.4155C24.4727 21.1035 24.7259 20.8499 25.0383 20.8499C25.3504 20.8499 25.604 21.1031 25.604 21.4155V22.3765C25.6036 22.6889 25.3508 22.9421 25.0383 22.9421Z" fill="#103E13"/>
<path d="M22.6604 22.9421C22.3484 22.9421 22.0947 22.6889 22.0947 22.3765V21.4155C22.0947 21.1035 22.348 20.8499 22.6604 20.8499C22.9724 20.8499 23.2261 21.1031 23.2261 21.4155V22.3765C23.2261 22.6889 22.9728 22.9421 22.6604 22.9421Z" fill="#103E13"/>
<path d="M27.4163 26.8734C27.1042 26.8734 26.8506 26.6201 26.8506 26.3077V25.3464C26.8506 25.0344 27.1038 24.7807 27.4163 24.7807C27.7283 24.7807 27.9819 25.0339 27.9819 25.3464V26.3077C27.9819 26.6201 27.7283 26.8734 27.4163 26.8734Z" fill="#103E13"/>
<path d="M25.0383 26.8734C24.7263 26.8734 24.4727 26.6201 24.4727 26.3077V25.3464C24.4727 25.0344 24.7259 24.7807 25.0383 24.7807C25.3504 24.7807 25.604 25.0339 25.604 25.3464V26.3077C25.6036 26.6201 25.3508 26.8734 25.0383 26.8734Z" fill="#103E13"/>
<path d="M22.6604 26.8734C22.3484 26.8734 22.0947 26.6201 22.0947 26.3077V25.3464C22.0947 25.0344 22.348 24.7807 22.6604 24.7807C22.9724 24.7807 23.2261 25.0339 23.2261 25.3464V26.3077C23.2261 26.6201 22.9728 26.8734 22.6604 26.8734Z" fill="#103E13"/>
<path d="M27.4163 30.8039C27.1042 30.8039 26.8506 30.5506 26.8506 30.2382V29.2769C26.8506 28.9648 27.1038 28.7112 27.4163 28.7112C27.7283 28.7112 27.9819 28.9644 27.9819 29.2769V30.2382C27.9819 30.5506 27.7283 30.8039 27.4163 30.8039Z" fill="#103E13"/>
<path d="M25.0383 30.8039C24.7263 30.8039 24.4727 30.5506 24.4727 30.2382V29.2769C24.4727 28.9648 24.7259 28.7112 25.0383 28.7112C25.3504 28.7112 25.604 28.9644 25.604 29.2769V30.2382C25.6036 30.5506 25.3508 30.8039 25.0383 30.8039Z" fill="#103E13"/>
<path d="M22.6604 30.8039C22.3484 30.8039 22.0947 30.5506 22.0947 30.2382V29.2769C22.0947 28.9648 22.348 28.7112 22.6604 28.7112C22.9724 28.7112 23.2261 28.9644 23.2261 29.2769V30.2382C23.2261 30.5506 22.9728 30.8039 22.6604 30.8039Z" fill="#103E13"/>
<path d="M27.4163 34.735C27.1042 34.735 26.8506 34.4818 26.8506 34.1694V33.2084C26.8506 32.8964 27.1038 32.6428 27.4163 32.6428C27.7283 32.6428 27.9819 32.896 27.9819 33.2084V34.1694C27.9819 34.4814 27.7283 34.735 27.4163 34.735Z" fill="#103E13"/>
<path d="M25.0383 34.735C24.7263 34.735 24.4727 34.4818 24.4727 34.1694V33.2084C24.4727 32.8964 24.7259 32.6428 25.0383 32.6428C25.3504 32.6428 25.604 32.896 25.604 33.2084V34.1694C25.6036 34.4814 25.3508 34.735 25.0383 34.735Z" fill="#103E13"/>
<path d="M22.6604 34.735C22.3484 34.735 22.0947 34.4818 22.0947 34.1694L22.0951 33.2084C22.0951 32.8964 22.3484 32.6428 22.6608 32.6428C22.9728 32.6428 23.2265 32.896 23.2265 33.2084V34.1694C23.2261 34.4814 22.9728 34.735 22.6604 34.735Z" fill="#103E13"/>
<path d="M6.50047 38.6472C6.50047 38.9592 6.75372 39.2129 7.06615 39.2129H41.5139C41.8259 39.2129 42.0796 38.9596 42.0796 38.6472C42.0796 38.3352 41.8263 38.0815 41.5139 38.0815H40.4682V21.8402C40.4682 21.5282 40.215 21.2746 39.9025 21.2746L30.6668 21.2749V9.56582C30.6668 9.3678 30.5635 9.18477 30.3946 9.0822C30.2262 8.97925 30.0156 8.97294 29.8404 9.06405L19.3401 14.531C19.1527 14.6285 19.0359 14.8218 19.0359 15.0328V25.2605H8.87388C8.56186 25.2605 8.3082 25.5137 8.3082 25.8262V38.0816H7.06489C6.75287 38.0812 6.5 38.3345 6.5 38.6469L6.50047 38.6472ZM30.667 29.8423H39.3374V38.082L30.667 38.0816V29.8423ZM30.667 25.9114H39.3374V28.7114L30.667 28.711V25.9114ZM30.667 22.4057H39.3374V24.7809H30.667V22.4057ZM20.1667 15.3763L29.5353 10.4982V38.0811H20.1667V15.3763ZM12.2359 33.5636C12.2359 32.3896 13.166 31.4342 14.3096 31.4342C15.4531 31.4342 16.3837 32.3892 16.3837 33.5636V38.0818H12.2359V33.5636ZM9.43952 26.3916H19.0358V38.0816H17.515V33.5634C17.515 31.7657 16.0776 30.3031 14.3096 30.3031C12.5424 30.3031 11.105 31.7653 11.105 33.5634V38.0816H9.43952V26.3916Z" fill="#103E13"/>
</svg>
